<mxfile host="app.diagrams.net" agent="Mozilla/5.0 (X11; Linux x86_64; rv:131.0) Gecko/20100101 Firefox/131.0" version="24.7.17">
  <diagram name="Page-1" id="VLmMnr1EgRJ3bXRlBLcG">
    <mxGraphModel dx="3045" dy="2988" grid="1" gridSize="10" guides="1" tooltips="1" connect="1" arrows="1" fold="1" page="1" pageScale="1" pageWidth="850" pageHeight="1100" math="0" shadow="0">
      <root>
        <mxCell id="0" />
        <mxCell id="1" parent="0" />
        <mxCell id="9f60KnHf8uyy-V3omW8W-4" style="edgeStyle=orthogonalEdgeStyle;rounded=0;orthogonalLoop=1;jettySize=auto;html=1;entryX=0.5;entryY=0;entryDx=0;entryDy=0;" edge="1" parent="1" source="9f60KnHf8uyy-V3omW8W-2" target="9f60KnHf8uyy-V3omW8W-3">
          <mxGeometry relative="1" as="geometry" />
        </mxCell>
        <mxCell id="9f60KnHf8uyy-V3omW8W-2" value="&lt;div&gt;start&lt;/div&gt;" style="ellipse;whiteSpace=wrap;html=1;" vertex="1" parent="1">
          <mxGeometry x="360" y="-10" width="120" height="80" as="geometry" />
        </mxCell>
        <mxCell id="9f60KnHf8uyy-V3omW8W-21" style="edgeStyle=orthogonalEdgeStyle;rounded=0;orthogonalLoop=1;jettySize=auto;html=1;entryX=0.5;entryY=0;entryDx=0;entryDy=0;" edge="1" parent="1" source="9f60KnHf8uyy-V3omW8W-3" target="9f60KnHf8uyy-V3omW8W-20">
          <mxGeometry relative="1" as="geometry" />
        </mxCell>
        <mxCell id="9f60KnHf8uyy-V3omW8W-3" value="enter legs lengths" style="shape=parallelogram;perimeter=parallelogramPerimeter;whiteSpace=wrap;html=1;fixedSize=1;" vertex="1" parent="1">
          <mxGeometry x="360" y="110" width="120" height="60" as="geometry" />
        </mxCell>
        <mxCell id="9f60KnHf8uyy-V3omW8W-23" style="edgeStyle=orthogonalEdgeStyle;rounded=0;orthogonalLoop=1;jettySize=auto;html=1;exitX=0.5;exitY=1;exitDx=0;exitDy=0;entryX=0.5;entryY=0;entryDx=0;entryDy=0;" edge="1" parent="1" source="9f60KnHf8uyy-V3omW8W-5" target="9f60KnHf8uyy-V3omW8W-6">
          <mxGeometry relative="1" as="geometry" />
        </mxCell>
        <mxCell id="9f60KnHf8uyy-V3omW8W-5" value="i = 0" style="rounded=1;whiteSpace=wrap;html=1;" vertex="1" parent="1">
          <mxGeometry x="360" y="310" width="120" height="60" as="geometry" />
        </mxCell>
        <mxCell id="9f60KnHf8uyy-V3omW8W-8" style="edgeStyle=orthogonalEdgeStyle;rounded=0;orthogonalLoop=1;jettySize=auto;html=1;entryX=0.5;entryY=0;entryDx=0;entryDy=0;" edge="1" parent="1" source="9f60KnHf8uyy-V3omW8W-6" target="9f60KnHf8uyy-V3omW8W-7">
          <mxGeometry relative="1" as="geometry" />
        </mxCell>
        <mxCell id="9f60KnHf8uyy-V3omW8W-36" value="true" style="edgeLabel;html=1;align=center;verticalAlign=middle;resizable=0;points=[];" vertex="1" connectable="0" parent="9f60KnHf8uyy-V3omW8W-8">
          <mxGeometry x="-0.2" y="3" relative="1" as="geometry">
            <mxPoint as="offset" />
          </mxGeometry>
        </mxCell>
        <mxCell id="9f60KnHf8uyy-V3omW8W-44" style="edgeStyle=orthogonalEdgeStyle;rounded=0;orthogonalLoop=1;jettySize=auto;html=1;exitX=0;exitY=0.5;exitDx=0;exitDy=0;entryX=1;entryY=0.5;entryDx=0;entryDy=0;" edge="1" parent="1" source="9f60KnHf8uyy-V3omW8W-6" target="9f60KnHf8uyy-V3omW8W-37">
          <mxGeometry relative="1" as="geometry" />
        </mxCell>
        <mxCell id="9f60KnHf8uyy-V3omW8W-6" value="i &amp;lt; 4" style="rhombus;whiteSpace=wrap;html=1;" vertex="1" parent="1">
          <mxGeometry x="350" y="410" width="140" height="80" as="geometry" />
        </mxCell>
        <mxCell id="9f60KnHf8uyy-V3omW8W-24" style="edgeStyle=orthogonalEdgeStyle;rounded=0;orthogonalLoop=1;jettySize=auto;html=1;exitX=0.5;exitY=1;exitDx=0;exitDy=0;entryX=0.5;entryY=0;entryDx=0;entryDy=0;" edge="1" parent="1" source="9f60KnHf8uyy-V3omW8W-7" target="9f60KnHf8uyy-V3omW8W-9">
          <mxGeometry relative="1" as="geometry" />
        </mxCell>
        <mxCell id="9f60KnHf8uyy-V3omW8W-7" value="enter how many to cut" style="shape=parallelogram;perimeter=parallelogramPerimeter;whiteSpace=wrap;html=1;fixedSize=1;" vertex="1" parent="1">
          <mxGeometry x="360" y="530" width="120" height="60" as="geometry" />
        </mxCell>
        <mxCell id="9f60KnHf8uyy-V3omW8W-12" style="edgeStyle=orthogonalEdgeStyle;rounded=0;orthogonalLoop=1;jettySize=auto;html=1;entryX=0.5;entryY=0;entryDx=0;entryDy=0;" edge="1" parent="1" source="9f60KnHf8uyy-V3omW8W-9" target="9f60KnHf8uyy-V3omW8W-10">
          <mxGeometry relative="1" as="geometry" />
        </mxCell>
        <mxCell id="9f60KnHf8uyy-V3omW8W-14" value="true" style="edgeLabel;html=1;align=center;verticalAlign=middle;resizable=0;points=[];" vertex="1" connectable="0" parent="9f60KnHf8uyy-V3omW8W-12">
          <mxGeometry x="-0.16" y="5" relative="1" as="geometry">
            <mxPoint as="offset" />
          </mxGeometry>
        </mxCell>
        <mxCell id="9f60KnHf8uyy-V3omW8W-16" style="edgeStyle=orthogonalEdgeStyle;rounded=0;orthogonalLoop=1;jettySize=auto;html=1;exitX=1;exitY=0.5;exitDx=0;exitDy=0;entryX=0;entryY=0.5;entryDx=0;entryDy=0;" edge="1" parent="1" source="9f60KnHf8uyy-V3omW8W-9" target="9f60KnHf8uyy-V3omW8W-15">
          <mxGeometry relative="1" as="geometry" />
        </mxCell>
        <mxCell id="9f60KnHf8uyy-V3omW8W-31" value="&lt;div&gt;false&lt;/div&gt;" style="edgeLabel;html=1;align=center;verticalAlign=middle;resizable=0;points=[];" vertex="1" connectable="0" parent="9f60KnHf8uyy-V3omW8W-16">
          <mxGeometry x="-0.6" y="-1" relative="1" as="geometry">
            <mxPoint as="offset" />
          </mxGeometry>
        </mxCell>
        <mxCell id="9f60KnHf8uyy-V3omW8W-9" value="cut &amp;gt; leg length" style="rhombus;whiteSpace=wrap;html=1;" vertex="1" parent="1">
          <mxGeometry x="355" y="630" width="130" height="80" as="geometry" />
        </mxCell>
        <mxCell id="9f60KnHf8uyy-V3omW8W-13" style="edgeStyle=orthogonalEdgeStyle;rounded=0;orthogonalLoop=1;jettySize=auto;html=1;entryX=0.5;entryY=0;entryDx=0;entryDy=0;" edge="1" parent="1" source="9f60KnHf8uyy-V3omW8W-10" target="9f60KnHf8uyy-V3omW8W-11">
          <mxGeometry relative="1" as="geometry" />
        </mxCell>
        <mxCell id="9f60KnHf8uyy-V3omW8W-10" value="print &quot;ERROR&quot;" style="shape=parallelogram;perimeter=parallelogramPerimeter;whiteSpace=wrap;html=1;fixedSize=1;" vertex="1" parent="1">
          <mxGeometry x="360" y="760" width="120" height="60" as="geometry" />
        </mxCell>
        <mxCell id="9f60KnHf8uyy-V3omW8W-11" value="&lt;div&gt;end&lt;/div&gt;" style="ellipse;whiteSpace=wrap;html=1;" vertex="1" parent="1">
          <mxGeometry x="360" y="870" width="120" height="80" as="geometry" />
        </mxCell>
        <mxCell id="9f60KnHf8uyy-V3omW8W-49" style="edgeStyle=orthogonalEdgeStyle;rounded=0;orthogonalLoop=1;jettySize=auto;html=1;exitX=1;exitY=0.5;exitDx=0;exitDy=0;entryX=0;entryY=0.5;entryDx=0;entryDy=0;" edge="1" parent="1" source="9f60KnHf8uyy-V3omW8W-15" target="9f60KnHf8uyy-V3omW8W-48">
          <mxGeometry relative="1" as="geometry" />
        </mxCell>
        <mxCell id="9f60KnHf8uyy-V3omW8W-15" value="new leg length = old length - action" style="rounded=1;whiteSpace=wrap;html=1;" vertex="1" parent="1">
          <mxGeometry x="530" y="640" width="120" height="60" as="geometry" />
        </mxCell>
        <mxCell id="9f60KnHf8uyy-V3omW8W-26" style="edgeStyle=orthogonalEdgeStyle;rounded=0;orthogonalLoop=1;jettySize=auto;html=1;exitX=0.5;exitY=0;exitDx=0;exitDy=0;entryX=0.5;entryY=1;entryDx=0;entryDy=0;" edge="1" parent="1" source="9f60KnHf8uyy-V3omW8W-18" target="9f60KnHf8uyy-V3omW8W-25">
          <mxGeometry relative="1" as="geometry" />
        </mxCell>
        <mxCell id="9f60KnHf8uyy-V3omW8W-29" value="true" style="edgeLabel;html=1;align=center;verticalAlign=middle;resizable=0;points=[];" vertex="1" connectable="0" parent="9f60KnHf8uyy-V3omW8W-26">
          <mxGeometry x="-0.1" y="-3" relative="1" as="geometry">
            <mxPoint as="offset" />
          </mxGeometry>
        </mxCell>
        <mxCell id="9f60KnHf8uyy-V3omW8W-34" style="edgeStyle=orthogonalEdgeStyle;rounded=0;orthogonalLoop=1;jettySize=auto;html=1;exitX=1;exitY=0.5;exitDx=0;exitDy=0;" edge="1" parent="1" source="9f60KnHf8uyy-V3omW8W-18">
          <mxGeometry relative="1" as="geometry">
            <mxPoint x="650" y="450" as="targetPoint" />
            <Array as="points">
              <mxPoint x="1110" y="670" />
              <mxPoint x="1110" y="450" />
            </Array>
          </mxGeometry>
        </mxCell>
        <mxCell id="9f60KnHf8uyy-V3omW8W-18" value="&lt;div&gt;length of current&amp;nbsp;&lt;/div&gt;&lt;div&gt;leg * 2 &amp;lt;= longest&lt;br&gt;&lt;/div&gt;" style="rhombus;whiteSpace=wrap;html=1;" vertex="1" parent="1">
          <mxGeometry x="880" y="630" width="160" height="80" as="geometry" />
        </mxCell>
        <mxCell id="9f60KnHf8uyy-V3omW8W-22" style="edgeStyle=orthogonalEdgeStyle;rounded=0;orthogonalLoop=1;jettySize=auto;html=1;entryX=0.5;entryY=0;entryDx=0;entryDy=0;" edge="1" parent="1" source="9f60KnHf8uyy-V3omW8W-20" target="9f60KnHf8uyy-V3omW8W-5">
          <mxGeometry relative="1" as="geometry" />
        </mxCell>
        <mxCell id="9f60KnHf8uyy-V3omW8W-20" value="flip = 0" style="rounded=1;whiteSpace=wrap;html=1;" vertex="1" parent="1">
          <mxGeometry x="360" y="210" width="120" height="60" as="geometry" />
        </mxCell>
        <mxCell id="9f60KnHf8uyy-V3omW8W-33" style="edgeStyle=orthogonalEdgeStyle;rounded=0;orthogonalLoop=1;jettySize=auto;html=1;exitX=0.5;exitY=0;exitDx=0;exitDy=0;entryX=1;entryY=0.5;entryDx=0;entryDy=0;" edge="1" parent="1" source="9f60KnHf8uyy-V3omW8W-25" target="9f60KnHf8uyy-V3omW8W-32">
          <mxGeometry relative="1" as="geometry" />
        </mxCell>
        <mxCell id="9f60KnHf8uyy-V3omW8W-25" value="flip = 1" style="rounded=1;whiteSpace=wrap;html=1;" vertex="1" parent="1">
          <mxGeometry x="900" y="530" width="120" height="60" as="geometry" />
        </mxCell>
        <mxCell id="9f60KnHf8uyy-V3omW8W-35" style="edgeStyle=orthogonalEdgeStyle;rounded=0;orthogonalLoop=1;jettySize=auto;html=1;exitX=0;exitY=0.5;exitDx=0;exitDy=0;entryX=1;entryY=0.5;entryDx=0;entryDy=0;" edge="1" parent="1" source="9f60KnHf8uyy-V3omW8W-32" target="9f60KnHf8uyy-V3omW8W-6">
          <mxGeometry relative="1" as="geometry" />
        </mxCell>
        <mxCell id="9f60KnHf8uyy-V3omW8W-32" value="i++" style="rounded=1;whiteSpace=wrap;html=1;" vertex="1" parent="1">
          <mxGeometry x="530" y="420" width="120" height="60" as="geometry" />
        </mxCell>
        <mxCell id="9f60KnHf8uyy-V3omW8W-39" style="edgeStyle=orthogonalEdgeStyle;rounded=0;orthogonalLoop=1;jettySize=auto;html=1;exitX=0.5;exitY=1;exitDx=0;exitDy=0;entryX=0.5;entryY=0;entryDx=0;entryDy=0;" edge="1" parent="1" source="9f60KnHf8uyy-V3omW8W-37" target="9f60KnHf8uyy-V3omW8W-38">
          <mxGeometry relative="1" as="geometry" />
        </mxCell>
        <mxCell id="9f60KnHf8uyy-V3omW8W-42" value="true" style="edgeLabel;html=1;align=center;verticalAlign=middle;resizable=0;points=[];" vertex="1" connectable="0" parent="9f60KnHf8uyy-V3omW8W-39">
          <mxGeometry x="-0.1" relative="1" as="geometry">
            <mxPoint as="offset" />
          </mxGeometry>
        </mxCell>
        <mxCell id="9f60KnHf8uyy-V3omW8W-41" style="edgeStyle=orthogonalEdgeStyle;rounded=0;orthogonalLoop=1;jettySize=auto;html=1;exitX=0;exitY=0.5;exitDx=0;exitDy=0;entryX=0;entryY=0.5;entryDx=0;entryDy=0;" edge="1" parent="1" source="9f60KnHf8uyy-V3omW8W-37" target="9f60KnHf8uyy-V3omW8W-40">
          <mxGeometry relative="1" as="geometry">
            <Array as="points">
              <mxPoint x="110" y="450" />
              <mxPoint x="110" y="680" />
            </Array>
          </mxGeometry>
        </mxCell>
        <mxCell id="9f60KnHf8uyy-V3omW8W-43" value="false" style="edgeLabel;html=1;align=center;verticalAlign=middle;resizable=0;points=[];" vertex="1" connectable="0" parent="9f60KnHf8uyy-V3omW8W-41">
          <mxGeometry x="-0.3862" y="1" relative="1" as="geometry">
            <mxPoint as="offset" />
          </mxGeometry>
        </mxCell>
        <mxCell id="9f60KnHf8uyy-V3omW8W-37" value="flip = 1" style="rhombus;whiteSpace=wrap;html=1;" vertex="1" parent="1">
          <mxGeometry x="130" y="410" width="140" height="80" as="geometry" />
        </mxCell>
        <mxCell id="9f60KnHf8uyy-V3omW8W-47" style="edgeStyle=orthogonalEdgeStyle;rounded=0;orthogonalLoop=1;jettySize=auto;html=1;entryX=0;entryY=0.5;entryDx=0;entryDy=0;" edge="1" parent="1" source="9f60KnHf8uyy-V3omW8W-38" target="9f60KnHf8uyy-V3omW8W-11">
          <mxGeometry relative="1" as="geometry" />
        </mxCell>
        <mxCell id="9f60KnHf8uyy-V3omW8W-38" value="print &quot;NO&quot;" style="shape=parallelogram;perimeter=parallelogramPerimeter;whiteSpace=wrap;html=1;fixedSize=1;" vertex="1" parent="1">
          <mxGeometry x="140" y="530" width="120" height="60" as="geometry" />
        </mxCell>
        <mxCell id="9f60KnHf8uyy-V3omW8W-45" style="edgeStyle=orthogonalEdgeStyle;rounded=0;orthogonalLoop=1;jettySize=auto;html=1;exitX=1;exitY=0.5;exitDx=0;exitDy=0;entryX=0;entryY=0.5;entryDx=0;entryDy=0;" edge="1" parent="1" source="9f60KnHf8uyy-V3omW8W-40" target="9f60KnHf8uyy-V3omW8W-11">
          <mxGeometry relative="1" as="geometry" />
        </mxCell>
        <mxCell id="9f60KnHf8uyy-V3omW8W-40" value="print &quot;YES&quot;" style="shape=parallelogram;perimeter=parallelogramPerimeter;whiteSpace=wrap;html=1;fixedSize=1;" vertex="1" parent="1">
          <mxGeometry x="140" y="650" width="120" height="60" as="geometry" />
        </mxCell>
        <mxCell id="9f60KnHf8uyy-V3omW8W-50" style="edgeStyle=orthogonalEdgeStyle;rounded=0;orthogonalLoop=1;jettySize=auto;html=1;exitX=1;exitY=0.5;exitDx=0;exitDy=0;entryX=0;entryY=0.5;entryDx=0;entryDy=0;" edge="1" parent="1" source="9f60KnHf8uyy-V3omW8W-48" target="9f60KnHf8uyy-V3omW8W-18">
          <mxGeometry relative="1" as="geometry" />
        </mxCell>
        <mxCell id="9f60KnHf8uyy-V3omW8W-48" value="longest = findLongest" style="shape=process;whiteSpace=wrap;html=1;backgroundOutline=1;" vertex="1" parent="1">
          <mxGeometry x="720" y="640" width="120" height="60" as="geometry" />
        </mxCell>
        <mxCell id="9f60KnHf8uyy-V3omW8W-65" style="edgeStyle=orthogonalEdgeStyle;rounded=0;orthogonalLoop=1;jettySize=auto;html=1;entryX=0.5;entryY=0;entryDx=0;entryDy=0;" edge="1" parent="1" source="9f60KnHf8uyy-V3omW8W-51" target="9f60KnHf8uyy-V3omW8W-55">
          <mxGeometry relative="1" as="geometry" />
        </mxCell>
        <mxCell id="9f60KnHf8uyy-V3omW8W-51" value="findLongest" style="ellipse;whiteSpace=wrap;html=1;" vertex="1" parent="1">
          <mxGeometry x="720" y="750" width="120" height="80" as="geometry" />
        </mxCell>
        <mxCell id="9f60KnHf8uyy-V3omW8W-63" style="edgeStyle=orthogonalEdgeStyle;rounded=0;orthogonalLoop=1;jettySize=auto;html=1;exitX=0.5;exitY=1;exitDx=0;exitDy=0;entryX=0.5;entryY=0;entryDx=0;entryDy=0;" edge="1" parent="1" source="9f60KnHf8uyy-V3omW8W-52" target="9f60KnHf8uyy-V3omW8W-53">
          <mxGeometry relative="1" as="geometry" />
        </mxCell>
        <mxCell id="9f60KnHf8uyy-V3omW8W-52" value="i = 1" style="rounded=1;whiteSpace=wrap;html=1;" vertex="1" parent="1">
          <mxGeometry x="720" y="1030" width="120" height="60" as="geometry" />
        </mxCell>
        <mxCell id="9f60KnHf8uyy-V3omW8W-64" style="edgeStyle=orthogonalEdgeStyle;rounded=0;orthogonalLoop=1;jettySize=auto;html=1;exitX=1;exitY=0.5;exitDx=0;exitDy=0;entryX=0;entryY=0.5;entryDx=0;entryDy=0;" edge="1" parent="1" source="9f60KnHf8uyy-V3omW8W-53" target="9f60KnHf8uyy-V3omW8W-57">
          <mxGeometry relative="1" as="geometry" />
        </mxCell>
        <mxCell id="9f60KnHf8uyy-V3omW8W-68" value="true" style="edgeLabel;html=1;align=center;verticalAlign=middle;resizable=0;points=[];" vertex="1" connectable="0" parent="9f60KnHf8uyy-V3omW8W-64">
          <mxGeometry x="-0.425" relative="1" as="geometry">
            <mxPoint as="offset" />
          </mxGeometry>
        </mxCell>
        <mxCell id="9f60KnHf8uyy-V3omW8W-67" style="edgeStyle=orthogonalEdgeStyle;rounded=0;orthogonalLoop=1;jettySize=auto;html=1;exitX=0.5;exitY=1;exitDx=0;exitDy=0;entryX=0.5;entryY=0;entryDx=0;entryDy=0;" edge="1" parent="1" source="9f60KnHf8uyy-V3omW8W-53" target="9f60KnHf8uyy-V3omW8W-56">
          <mxGeometry relative="1" as="geometry" />
        </mxCell>
        <mxCell id="9f60KnHf8uyy-V3omW8W-69" value="false" style="edgeLabel;html=1;align=center;verticalAlign=middle;resizable=0;points=[];" vertex="1" connectable="0" parent="9f60KnHf8uyy-V3omW8W-67">
          <mxGeometry x="-0.0286" y="4" relative="1" as="geometry">
            <mxPoint as="offset" />
          </mxGeometry>
        </mxCell>
        <mxCell id="9f60KnHf8uyy-V3omW8W-53" value="i &amp;lt; 4" style="rhombus;whiteSpace=wrap;html=1;" vertex="1" parent="1">
          <mxGeometry x="710" y="1160" width="140" height="80" as="geometry" />
        </mxCell>
        <mxCell id="9f60KnHf8uyy-V3omW8W-66" style="edgeStyle=orthogonalEdgeStyle;rounded=0;orthogonalLoop=1;jettySize=auto;html=1;exitX=0.5;exitY=1;exitDx=0;exitDy=0;entryX=0.5;entryY=0;entryDx=0;entryDy=0;" edge="1" parent="1" source="9f60KnHf8uyy-V3omW8W-55" target="9f60KnHf8uyy-V3omW8W-52">
          <mxGeometry relative="1" as="geometry" />
        </mxCell>
        <mxCell id="9f60KnHf8uyy-V3omW8W-55" value="temp = 0" style="rounded=1;whiteSpace=wrap;html=1;" vertex="1" parent="1">
          <mxGeometry x="720" y="900" width="120" height="60" as="geometry" />
        </mxCell>
        <mxCell id="9f60KnHf8uyy-V3omW8W-56" value="end" style="ellipse;whiteSpace=wrap;html=1;" vertex="1" parent="1">
          <mxGeometry x="720" y="1310" width="120" height="80" as="geometry" />
        </mxCell>
        <mxCell id="9f60KnHf8uyy-V3omW8W-60" style="edgeStyle=orthogonalEdgeStyle;rounded=0;orthogonalLoop=1;jettySize=auto;html=1;entryX=0.5;entryY=1;entryDx=0;entryDy=0;" edge="1" parent="1" source="9f60KnHf8uyy-V3omW8W-57" target="9f60KnHf8uyy-V3omW8W-58">
          <mxGeometry relative="1" as="geometry" />
        </mxCell>
        <mxCell id="9f60KnHf8uyy-V3omW8W-70" value="true" style="edgeLabel;html=1;align=center;verticalAlign=middle;resizable=0;points=[];" vertex="1" connectable="0" parent="9f60KnHf8uyy-V3omW8W-60">
          <mxGeometry x="-0.4923" y="-1" relative="1" as="geometry">
            <mxPoint as="offset" />
          </mxGeometry>
        </mxCell>
        <mxCell id="9f60KnHf8uyy-V3omW8W-57" value="legs[i] &amp;gt; temp" style="rhombus;whiteSpace=wrap;html=1;" vertex="1" parent="1">
          <mxGeometry x="930" y="1160" width="130" height="80" as="geometry" />
        </mxCell>
        <mxCell id="9f60KnHf8uyy-V3omW8W-61" style="edgeStyle=orthogonalEdgeStyle;rounded=0;orthogonalLoop=1;jettySize=auto;html=1;exitX=0;exitY=0.5;exitDx=0;exitDy=0;entryX=1;entryY=0.5;entryDx=0;entryDy=0;" edge="1" parent="1" source="9f60KnHf8uyy-V3omW8W-58" target="9f60KnHf8uyy-V3omW8W-59">
          <mxGeometry relative="1" as="geometry" />
        </mxCell>
        <mxCell id="9f60KnHf8uyy-V3omW8W-58" value="temp = legs[i]" style="rounded=1;whiteSpace=wrap;html=1;" vertex="1" parent="1">
          <mxGeometry x="1150" y="1030" width="120" height="60" as="geometry" />
        </mxCell>
        <mxCell id="9f60KnHf8uyy-V3omW8W-62" style="edgeStyle=orthogonalEdgeStyle;rounded=0;orthogonalLoop=1;jettySize=auto;html=1;exitX=0;exitY=0.5;exitDx=0;exitDy=0;entryX=1;entryY=0.5;entryDx=0;entryDy=0;" edge="1" parent="1" source="9f60KnHf8uyy-V3omW8W-59" target="9f60KnHf8uyy-V3omW8W-52">
          <mxGeometry relative="1" as="geometry" />
        </mxCell>
        <mxCell id="9f60KnHf8uyy-V3omW8W-59" value="i++" style="rounded=1;whiteSpace=wrap;html=1;" vertex="1" parent="1">
          <mxGeometry x="935" y="1030" width="120" height="60" as="geometry" />
        </mxCell>
      </root>
    </mxGraphModel>
  </diagram>
</mxfile>
